<svg width="86" height="19" viewBox="0 0 86 19" fill="none" xmlns="http://www.w3.org/2000/svg">
<path d="M7.524 8.848H5.5V18H1.738V8.848H0.374V5.724H1.738V5.372C1.738 3.86133 2.17067 2.71733 3.036 1.94C3.90133 1.148 5.17 0.751999 6.842 0.751999C7.12067 0.751999 7.326 0.759332 7.458 0.773999V3.964C6.73933 3.92 6.23333 4.02267 5.94 4.272C5.64667 4.52133 5.5 4.96867 5.5 5.614V5.724H7.524V8.848ZM11.1837 4.448C10.5237 4.448 9.98107 4.25733 9.55573 3.876C9.14507 3.48 8.93973 2.996 8.93973 2.424C8.93973 1.83733 9.14507 1.35333 9.55573 0.971999C9.98107 0.575999 10.5237 0.377999 11.1837 0.377999C11.8291 0.377999 12.3571 0.575999 12.7677 0.971999C13.1931 1.35333 13.4057 1.83733 13.4057 2.424C13.4057 2.996 13.1931 3.48 12.7677 3.876C12.3571 4.25733 11.8291 4.448 11.1837 4.448ZM13.0537 5.724V18H9.29173V5.724H13.0537ZM15.032 11.862C15.032 10.586 15.2887 9.47133 15.802 8.518C16.33 7.56467 17.056 6.83133 17.98 6.318C18.9187 5.80467 19.9893 5.548 21.192 5.548C22.732 5.548 24.0153 5.95133 25.042 6.758C26.0833 7.56467 26.7653 8.70133 27.088 10.168H23.084C22.7467 9.22933 22.094 8.76 21.126 8.76C20.4367 8.76 19.8867 9.03133 19.476 9.574C19.0653 10.102 18.86 10.8647 18.86 11.862C18.86 12.8593 19.0653 13.6293 19.476 14.172C19.8867 14.7 20.4367 14.964 21.126 14.964C22.094 14.964 22.7467 14.4947 23.084 13.556H27.088C26.7653 14.9933 26.0833 16.1227 25.042 16.944C24.0007 17.7653 22.7173 18.176 21.192 18.176C19.9893 18.176 18.9187 17.9193 17.98 17.406C17.056 16.8927 16.33 16.1593 15.802 15.206C15.2887 14.2527 15.032 13.138 15.032 11.862ZM28.3523 11.84C28.3523 10.5787 28.587 9.47133 29.0563 8.518C29.5403 7.56467 30.193 6.83133 31.0143 6.318C31.8357 5.80467 32.7523 5.548 33.7643 5.548C34.6297 5.548 35.385 5.724 36.0303 6.076C36.6903 6.428 37.1963 6.89 37.5483 7.462V5.724H41.3103V18H37.5483V16.262C37.1817 16.834 36.6683 17.296 36.0083 17.648C35.363 18 34.6077 18.176 33.7423 18.176C32.745 18.176 31.8357 17.9193 31.0143 17.406C30.193 16.878 29.5403 16.1373 29.0563 15.184C28.587 14.216 28.3523 13.1013 28.3523 11.84ZM37.5483 11.862C37.5483 10.9233 37.2843 10.1827 36.7563 9.64C36.243 9.09733 35.6123 8.826 34.8643 8.826C34.1163 8.826 33.4783 9.09733 32.9503 9.64C32.437 10.168 32.1803 10.9013 32.1803 11.84C32.1803 12.7787 32.437 13.5267 32.9503 14.084C33.4783 14.6267 34.1163 14.898 34.8643 14.898C35.6123 14.898 36.243 14.6267 36.7563 14.084C37.2843 13.5413 37.5483 12.8007 37.5483 11.862ZM51.512 5.592C52.9493 5.592 54.0933 6.06133 54.944 7C55.8093 7.924 56.242 9.2 56.242 10.828V18H52.502V11.334C52.502 10.5127 52.2893 9.87467 51.864 9.42C51.4386 8.96533 50.8666 8.738 50.148 8.738C49.4293 8.738 48.8573 8.96533 48.432 9.42C48.0066 9.87467 47.794 10.5127 47.794 11.334V18H44.032V5.724H47.794V7.352C48.1753 6.80933 48.6886 6.384 49.334 6.076C49.9793 5.75333 50.7053 5.592 51.512 5.592ZM58.1082 11.84C58.1082 10.5787 58.3429 9.47133 58.8122 8.518C59.2962 7.56467 59.9489 6.83133 60.7702 6.318C61.5915 5.80467 62.5082 5.548 63.5202 5.548C64.3269 5.548 65.0602 5.71667 65.7202 6.054C66.3949 6.39133 66.9229 6.846 67.3042 7.418V1.72H71.0662V18H67.3042V16.24C66.9522 16.8267 66.4462 17.296 65.7862 17.648C65.1409 18 64.3855 18.176 63.5202 18.176C62.5082 18.176 61.5915 17.9193 60.7702 17.406C59.9489 16.878 59.2962 16.1373 58.8122 15.184C58.3429 14.216 58.1082 13.1013 58.1082 11.84ZM67.3042 11.862C67.3042 10.9233 67.0402 10.1827 66.5122 9.64C65.9989 9.09733 65.3682 8.826 64.6202 8.826C63.8722 8.826 63.2342 9.09733 62.7062 9.64C62.1929 10.168 61.9362 10.9013 61.9362 11.84C61.9362 12.7787 62.1929 13.5267 62.7062 14.084C63.2342 14.6267 63.8722 14.898 64.6202 14.898C65.3682 14.898 65.9989 14.6267 66.5122 14.084C67.0402 13.5413 67.3042 12.8007 67.3042 11.862ZM79.3758 18.176C78.1732 18.176 77.0878 17.9193 76.1198 17.406C75.1665 16.8927 74.4112 16.1593 73.8538 15.206C73.3112 14.2527 73.0398 13.138 73.0398 11.862C73.0398 10.6007 73.3185 9.49333 73.8758 8.54C74.4332 7.572 75.1958 6.83133 76.1638 6.318C77.1318 5.80467 78.2172 5.548 79.4198 5.548C80.6225 5.548 81.7078 5.80467 82.6758 6.318C83.6438 6.83133 84.4065 7.572 84.9638 8.54C85.5212 9.49333 85.7998 10.6007 85.7998 11.862C85.7998 13.1233 85.5138 14.238 84.9418 15.206C84.3845 16.1593 83.6145 16.8927 82.6318 17.406C81.6638 17.9193 80.5785 18.176 79.3758 18.176ZM79.3758 14.92C80.0945 14.92 80.7032 14.656 81.2018 14.128C81.7152 13.6 81.9718 12.8447 81.9718 11.862C81.9718 10.8793 81.7225 10.124 81.2238 9.596C80.7398 9.068 80.1385 8.804 79.4198 8.804C78.6865 8.804 78.0778 9.068 77.5938 9.596C77.1098 10.1093 76.8678 10.8647 76.8678 11.862C76.8678 12.8447 77.1025 13.6 77.5718 14.128C78.0558 14.656 78.6572 14.92 79.3758 14.92Z" fill="#3F53BE"/>
</svg>
