<svg width="30" height="26" viewBox="0 0 30 26" fill="none" xmlns="http://www.w3.org/2000/svg">
<g filter="url(#filter0_d_240_31)">
<path d="M6.0238 2.51221C5.66314 2.59783 5.43985 2.95967 5.5257 3.32022C6.0742 5.63212 5.73181 6.26718 4.81654 7.96434C4.68805 8.20259 4.55515 8.44901 4.41167 8.72413C3.89269 9.71922 4.06746 10.5022 4.30563 10.9839C4.55353 11.4853 4.9769 11.8867 5.45993 12.2054L5.26964 12.5211C5.03914 12.9037 5.11258 13.396 5.44468 13.6946L9.91943 17.7177C10.1261 17.9035 10.4048 17.9873 10.6796 17.9463L24.2816 15.9174C24.7905 15.8415 25.1414 15.3675 25.0655 14.8587L23.6966 5.6818C23.6207 5.17297 23.1467 4.82201 22.6379 4.8979L9.03594 6.92681C8.76115 6.9678 8.51897 7.12932 8.37554 7.36733L6.15263 11.056C5.86631 10.8627 5.63338 10.6404 5.50899 10.3889C5.41463 10.1981 5.32162 9.88225 5.6019 9.34487C5.74111 9.07804 5.8717 8.83576 5.99805 8.60152C6.83279 7.05368 7.34406 6.10599 7.04039 4.07038C6.99212 3.74683 6.9232 3.39556 6.83182 3.01035C6.74624 2.64968 6.38451 2.42666 6.0238 2.51221ZM6.9426 12.9192C7.64568 13.1671 8.23796 13.2779 8.37568 13.3018C8.74089 13.3651 9.0884 13.1204 9.15175 12.7552C9.16436 12.6825 9.16476 12.6105 9.15444 12.5413C9.11291 12.2629 8.89772 12.0299 8.60516 11.9791C8.33103 11.9315 7.82598 11.8098 7.29715 11.6158C7.5348 11.3389 7.86904 11.1426 8.25835 11.0845C9.11771 10.9563 9.91824 11.5491 10.0464 12.4084C10.1746 13.2677 9.58186 14.0683 8.72254 14.1965C7.87887 14.3223 7.09232 13.7531 6.9426 12.9192ZM17.2954 14.8348L15.9505 15.0354C15.0129 15.1753 14.58 14.6105 14.4599 13.8055C14.3413 13.0099 14.589 12.3339 15.5267 12.194L16.8716 11.9934C17.8092 11.8536 18.2435 12.4278 18.3622 13.2234C18.4822 14.0284 18.2331 14.695 17.2954 14.8348ZM17.928 7.39182L19.2729 7.19121C20.2106 7.05135 20.6448 7.62557 20.7635 8.42116C20.8836 9.22621 20.6344 9.8927 19.6967 10.0326L18.3518 10.2332C17.4142 10.373 16.9813 9.80828 16.8613 9.00323C16.7425 8.2076 16.9903 7.53169 17.928 7.39182ZM13.9237 9.43173C13.9806 9.42325 14.0483 9.42282 14.1093 9.44273L21.4354 11.758C21.5874 11.8031 21.7089 11.969 21.7357 12.1489C21.7837 12.471 21.5496 12.7189 21.3129 12.7542C21.256 12.7627 21.1869 12.7537 21.1259 12.7337L13.8012 10.4279C13.6289 10.3761 13.5306 10.2359 13.5051 10.0654C13.4656 9.80019 13.6207 9.47693 13.9237 9.43173Z" fill="#E29942"/>
</g>
<defs>
<filter id="filter0_d_240_31" x="0.0741425" y="2.4939" width="29.0017" height="23.4626" filterUnits="userSpaceOnUse" color-interpolation-filters="sRGB">
<feFlood flood-opacity="0" result="BackgroundImageFix"/>
<feColorMatrix in="SourceAlpha" type="matrix" values="0 0 0 0 0 0 0 0 0 0 0 0 0 0 0 0 0 0 127 0" result="hardAlpha"/>
<feOffset dy="4"/>
<feGaussianBlur stdDeviation="2"/>
<feComposite in2="hardAlpha" operator="out"/>
<feColorMatrix type="matrix" values="0 0 0 0 0 0 0 0 0 0 0 0 0 0 0 0 0 0 0.25 0"/>
<feBlend mode="normal" in2="BackgroundImageFix" result="effect1_dropShadow_240_31"/>
<feBlend mode="normal" in="SourceGraphic" in2="effect1_dropShadow_240_31" result="shape"/>
</filter>
</defs>
</svg>
