<svg width="70" height="24" viewBox="0 0 70 24" fill="none" xmlns="http://www.w3.org/2000/svg">
<path d="M15.716 9.672C15.716 10.8107 15.4547 11.856 14.932 12.808C14.4093 13.7413 13.6067 14.4973 12.524 15.076C11.4413 15.6547 10.0973 15.944 8.492 15.944H5.524V23H0.736V3.344H8.492C10.06 3.344 11.3853 3.61467 12.468 4.156C13.5507 4.69733 14.3627 5.444 14.904 6.396C15.4453 7.348 15.716 8.44 15.716 9.672ZM8.128 12.136C9.04267 12.136 9.724 11.9213 10.172 11.492C10.62 11.0627 10.844 10.456 10.844 9.672C10.844 8.888 10.62 8.28133 10.172 7.852C9.724 7.42267 9.04267 7.208 8.128 7.208H5.524V12.136H8.128ZM22.9967 9.98C23.5567 9.12133 24.2567 8.44933 25.0967 7.964C25.9367 7.46 26.87 7.208 27.8967 7.208V12.276H26.5807C25.386 12.276 24.49 12.5373 23.8927 13.06C23.2953 13.564 22.9967 14.46 22.9967 15.748V23H18.2087V7.376H22.9967V9.98ZM44.9132 14.936C44.9132 15.384 44.8852 15.8507 44.8292 16.336H33.9932C34.0679 17.3067 34.3759 18.0533 34.9172 18.576C35.4772 19.08 36.1586 19.332 36.9612 19.332C38.1559 19.332 38.9866 18.828 39.4532 17.82H44.5492C44.2879 18.8467 43.8119 19.7707 43.1212 20.592C42.4492 21.4133 41.5999 22.0573 40.5732 22.524C39.5466 22.9907 38.3986 23.224 37.1292 23.224C35.5986 23.224 34.2359 22.8973 33.0412 22.244C31.8466 21.5907 30.9132 20.6573 30.2412 19.444C29.5692 18.2307 29.2332 16.812 29.2332 15.188C29.2332 13.564 29.5599 12.1453 30.2132 10.932C30.8852 9.71867 31.8186 8.78533 33.0132 8.132C34.2079 7.47867 35.5799 7.152 37.1292 7.152C38.6412 7.152 39.9852 7.46933 41.1612 8.104C42.3372 8.73867 43.2519 9.644 43.9052 10.82C44.5772 11.996 44.9132 13.368 44.9132 14.936ZM40.0132 13.676C40.0132 12.8547 39.7332 12.2013 39.1732 11.716C38.6132 11.2307 37.9132 10.988 37.0732 10.988C36.2706 10.988 35.5892 11.2213 35.0292 11.688C34.4879 12.1547 34.1519 12.8173 34.0212 13.676H40.0132ZM46.4871 15.188C46.4871 13.564 46.8138 12.1453 47.4671 10.932C48.1391 9.71867 49.0631 8.78533 50.2391 8.132C51.4338 7.47867 52.7965 7.152 54.3271 7.152C56.2871 7.152 57.9205 7.66533 59.2271 8.692C60.5525 9.71867 61.4205 11.1653 61.8311 13.032H56.7351C56.3058 11.8373 55.4751 11.24 54.2431 11.24C53.3658 11.24 52.6658 11.5853 52.1431 12.276C51.6205 12.948 51.3591 13.9187 51.3591 15.188C51.3591 16.4573 51.6205 17.4373 52.1431 18.128C52.6658 18.8 53.3658 19.136 54.2431 19.136C55.4751 19.136 56.3058 18.5387 56.7351 17.344H61.8311C61.4205 19.1733 60.5525 20.6107 59.2271 21.656C57.9018 22.7013 56.2685 23.224 54.3271 23.224C52.7965 23.224 51.4338 22.8973 50.2391 22.244C49.0631 21.5907 48.1391 20.6573 47.4671 19.444C46.8138 18.2307 46.4871 16.812 46.4871 15.188ZM66.8003 5.752C65.9603 5.752 65.2696 5.50933 64.7283 5.024C64.2056 4.52 63.9443 3.904 63.9443 3.176C63.9443 2.42933 64.2056 1.81333 64.7283 1.328C65.2696 0.823998 65.9603 0.571998 66.8003 0.571998C67.6216 0.571998 68.2936 0.823998 68.8163 1.328C69.3576 1.81333 69.6283 2.42933 69.6283 3.176C69.6283 3.904 69.3576 4.52 68.8163 5.024C68.2936 5.50933 67.6216 5.752 66.8003 5.752ZM69.1803 7.376V23H64.3923V7.376H69.1803Z" fill="#E29942"/>
</svg>
